<svg width="16" height="16" viewBox="0 0 16 16" fill="none" xmlns="http://www.w3.org/2000/svg">
<g clip-path="url(#clip0_13_385)">
<path d="M10.77 16.12C10.4567 16.12 10.18 16.0667 9.93999 15.96C9.69999 15.8467 9.49666 15.7 9.32999 15.52C9.16999 15.3333 9.04666 15.12 8.95999 14.88C8.87999 14.6333 8.83999 14.3733 8.83999 14.1C8.83999 13.68 8.93999 13.3133 9.13999 13C9.33999 12.6867 9.63333 12.4167 10.02 12.19C9.80666 11.89 9.64333 11.6233 9.52999 11.39C9.42333 11.1567 9.36999 10.9133 9.36999 10.66C9.36999 10.4133 9.41666 10.1833 9.50999 9.97C9.60999 9.75 9.74666 9.56333 9.91999 9.41C10.1 9.25 10.3067 9.12667 10.54 9.04C10.78 8.94667 11.04 8.9 11.32 8.9C11.5667 8.9 11.7967 8.93667 12.01 9.01C12.2233 9.07666 12.41 9.16667 12.57 9.28C12.7367 9.39333 12.8733 9.52666 12.98 9.68C13.0933 9.82666 13.1767 9.98 13.23 10.14L12.21 10.69C12.1367 10.4767 12.0233 10.31 11.87 10.19C11.7167 10.0633 11.54 10 11.34 10C11.14 10 10.9767 10.06 10.85 10.18C10.73 10.3 10.67 10.4567 10.67 10.65V10.7C10.67 10.7933 10.6833 10.8833 10.71 10.97C10.7367 11.05 10.7833 11.1433 10.85 11.25C10.9167 11.35 11 11.47 11.1 11.61C11.2067 11.7433 11.34 11.91 11.5 12.11L12.07 12.83L12.55 13.57H12.61C12.63 13.4567 12.6467 13.3333 12.66 13.2C12.6733 13.06 12.6833 12.92 12.69 12.78C12.7033 12.6333 12.71 12.4933 12.71 12.36C12.7167 12.22 12.72 12.0933 12.72 11.98H14.5V13.08H13.8C13.7667 13.2933 13.7167 13.5133 13.65 13.74C13.5833 13.96 13.4967 14.1867 13.39 14.42L14.69 16H13.11L12.31 15.03H12.24C12.1933 15.37 12.04 15.6367 11.78 15.83C11.52 16.0233 11.1833 16.12 10.77 16.12ZM11.14 14.99C11.2933 14.99 11.4367 14.9633 11.57 14.91C11.7033 14.85 11.8167 14.7433 11.91 14.59L10.62 12.95C10.4467 13.1167 10.3333 13.2867 10.28 13.46C10.2267 13.6267 10.2 13.8067 10.2 14V14.02C10.2 14.34 10.2833 14.5833 10.45 14.75C10.6233 14.91 10.8533 14.99 11.14 14.99Z" fill="white"/>
<path d="M2.2439 16V14.79H4.1239V10.11H4.0339L2.6139 11.97L1.6539 11.22L3.3239 9.02H5.6239V14.79H7.1039V16H2.2439Z" fill="white"/>
<path d="M11.7 8.12C10.7667 8.12 10.0767 7.80333 9.62999 7.17C9.18999 6.53667 8.96999 5.65 8.96999 4.51C8.96999 3.37 9.18999 2.48333 9.62999 1.85C10.0767 1.21666 10.7667 0.899998 11.7 0.899998C12.6333 0.899998 13.32 1.21666 13.76 1.85C14.2067 2.48333 14.43 3.37 14.43 4.51C14.43 5.65 14.2067 6.53667 13.76 7.17C13.32 7.80333 12.6333 8.12 11.7 8.12ZM11.7 6.94C12.1467 6.94 12.4567 6.78333 12.63 6.47C12.81 6.15666 12.9 5.72 12.9 5.16V3.86C12.9 3.3 12.81 2.86333 12.63 2.55C12.4567 2.23667 12.1467 2.08 11.7 2.08C11.2533 2.08 10.94 2.23667 10.76 2.55C10.5867 2.86333 10.5 3.3 10.5 3.86V5.16C10.5 5.72 10.5867 6.15666 10.76 6.47C10.94 6.78333 11.2533 6.94 11.7 6.94ZM11.7 5.1C11.4667 5.1 11.3033 5.05333 11.21 4.96C11.1233 4.86667 11.08 4.75333 11.08 4.62V4.4C11.08 4.26666 11.1233 4.15333 11.21 4.06C11.3033 3.96667 11.4667 3.92 11.7 3.92C11.9333 3.92 12.0933 3.96667 12.18 4.06C12.2733 4.15333 12.32 4.26666 12.32 4.4V4.62C12.32 4.75333 12.2733 4.86667 12.18 4.96C12.0933 5.05333 11.9333 5.1 11.7 5.1Z" fill="white"/>
<path d="M1.9539 0.599998H3.4339V3.78H3.4939C3.5539 3.63333 3.62723 3.49666 3.7139 3.37C3.80057 3.24333 3.9039 3.13333 4.0239 3.04C4.15057 2.94 4.2939 2.86333 4.4539 2.81C4.62057 2.75 4.80723 2.72 5.0139 2.72C5.26057 2.72 5.48723 2.76333 5.6939 2.85C5.90057 2.93 6.07723 3.05333 6.2239 3.22C6.37057 3.38667 6.4839 3.59 6.5639 3.83C6.65057 4.07 6.6939 4.34667 6.6939 4.66V8H5.2139V4.86C5.2139 4.19333 4.9239 3.86 4.3439 3.86C4.23057 3.86 4.11723 3.87666 4.0039 3.91C3.89723 3.93667 3.80057 3.98333 3.7139 4.05C3.62723 4.11 3.55723 4.18667 3.5039 4.28C3.45723 4.37333 3.4339 4.48333 3.4339 4.61V8H1.9539V0.599998Z" fill="white"/>
</g>
<defs>
<clipPath id="clip0_13_385">
<rect width="16" height="16" fill="white"/>
</clipPath>
</defs>
</svg>
