<svg width="24" height="24" viewBox="0 0 24 24" fill="none" xmlns="http://www.w3.org/2000/svg">
<g clip-path="url(#clip0_40000098_2648)">
<path d="M16.1556 24.18C15.6856 24.18 15.2706 24.1 14.9106 23.94C14.5506 23.77 14.2456 23.55 13.9956 23.28C13.7556 23 13.5706 22.68 13.4406 22.32C13.3206 21.95 13.2606 21.56 13.2606 21.15C13.2606 20.52 13.4106 19.97 13.7106 19.5C14.0106 19.03 14.4506 18.625 15.0306 18.285C14.7106 17.835 14.4656 17.435 14.2956 17.085C14.1356 16.735 14.0556 16.37 14.0556 15.99C14.0556 15.62 14.1256 15.275 14.2656 14.955C14.4156 14.625 14.6206 14.345 14.8806 14.115C15.1506 13.875 15.4606 13.69 15.8106 13.56C16.1706 13.42 16.5606 13.35 16.9806 13.35C17.3506 13.35 17.6956 13.405 18.0156 13.515C18.3356 13.615 18.6156 13.75 18.8556 13.92C19.1056 14.09 19.3106 14.29 19.4706 14.52C19.6406 14.74 19.7656 14.97 19.8456 15.21L18.3156 16.035C18.2056 15.715 18.0356 15.465 17.8056 15.285C17.5756 15.095 17.3106 15 17.0106 15C16.7106 15 16.4656 15.09 16.2756 15.27C16.0956 15.45 16.0056 15.685 16.0056 15.975V16.05C16.0056 16.19 16.0256 16.325 16.0656 16.455C16.1056 16.575 16.1756 16.715 16.2756 16.875C16.3756 17.025 16.5006 17.205 16.6506 17.415C16.8106 17.615 17.0106 17.865 17.2506 18.165L18.1056 19.245L18.8256 20.355H18.9156C18.9456 20.185 18.9706 20 18.9906 19.8C19.0106 19.59 19.0256 19.38 19.0356 19.17C19.0556 18.95 19.0656 18.74 19.0656 18.54C19.0756 18.33 19.0806 18.14 19.0806 17.97H21.7506V19.62H20.7006C20.6506 19.94 20.5756 20.27 20.4756 20.61C20.3756 20.94 20.2456 21.28 20.0856 21.63L22.0356 24H19.6656L18.4656 22.545H18.3606C18.2906 23.055 18.0606 23.455 17.6706 23.745C17.2806 24.035 16.7756 24.18 16.1556 24.18ZM16.7106 22.485C16.9406 22.485 17.1556 22.445 17.3556 22.365C17.5556 22.275 17.7256 22.115 17.8656 21.885L15.9306 19.425C15.6706 19.675 15.5006 19.93 15.4206 20.19C15.3406 20.44 15.3006 20.71 15.3006 21V21.03C15.3006 21.51 15.4256 21.875 15.6756 22.125C15.9356 22.365 16.2806 22.485 16.7106 22.485Z" fill="white"/>
<path d="M3.36645 24V22.185H6.18645V15.165H6.05145L3.92145 17.955L2.48145 16.83L4.98645 13.53H8.43645V22.185H10.6564V24H3.36645Z" fill="white"/>
<path d="M17.5506 12.18C16.1506 12.18 15.1156 11.705 14.4456 10.755C13.7856 9.80496 13.4556 8.47496 13.4556 6.76496C13.4556 5.05496 13.7856 3.72496 14.4456 2.77496C15.1156 1.82496 16.1506 1.34996 17.5506 1.34996C18.9506 1.34996 19.9806 1.82496 20.6406 2.77496C21.3106 3.72496 21.6456 5.05496 21.6456 6.76496C21.6456 8.47496 21.3106 9.80496 20.6406 10.755C19.9806 11.705 18.9506 12.18 17.5506 12.18ZM17.5506 10.41C18.2206 10.41 18.6856 10.175 18.9456 9.70496C19.2156 9.23496 19.3506 8.57996 19.3506 7.73996V5.78996C19.3506 4.94996 19.2156 4.29496 18.9456 3.82496C18.6856 3.35496 18.2206 3.11996 17.5506 3.11996C16.8806 3.11996 16.4106 3.35496 16.1406 3.82496C15.8806 4.29496 15.7506 4.94996 15.7506 5.78996V7.73996C15.7506 8.57996 15.8806 9.23496 16.1406 9.70496C16.4106 10.175 16.8806 10.41 17.5506 10.41ZM17.5506 7.64996C17.2006 7.64996 16.9556 7.57996 16.8156 7.43996C16.6856 7.29996 16.6206 7.12996 16.6206 6.92996V6.59996C16.6206 6.39996 16.6856 6.22996 16.8156 6.08996C16.9556 5.94996 17.2006 5.87996 17.5506 5.87996C17.9006 5.87996 18.1406 5.94996 18.2706 6.08996C18.4106 6.22996 18.4806 6.39996 18.4806 6.59996V6.92996C18.4806 7.12996 18.4106 7.29996 18.2706 7.43996C18.1406 7.57996 17.9006 7.64996 17.5506 7.64996Z" fill="white"/>
<path d="M2.93145 0.899963H5.15145V5.66996H5.24145C5.33145 5.44996 5.44145 5.24496 5.57145 5.05496C5.70145 4.86496 5.85645 4.69996 6.03645 4.55996C6.22645 4.40996 6.44145 4.29496 6.68145 4.21496C6.93145 4.12496 7.21145 4.07996 7.52145 4.07996C7.89145 4.07996 8.23145 4.14496 8.54145 4.27496C8.85145 4.39496 9.11645 4.57996 9.33645 4.82996C9.55645 5.07996 9.72645 5.38496 9.84645 5.74496C9.97645 6.10496 10.0414 6.51996 10.0414 6.98996V12H7.82145V7.28996C7.82145 6.28996 7.38645 5.78996 6.51645 5.78996C6.34645 5.78996 6.17645 5.81496 6.00645 5.86496C5.84645 5.90496 5.70145 5.97496 5.57145 6.07496C5.44145 6.16496 5.33645 6.27996 5.25645 6.41996C5.18645 6.55996 5.15145 6.72496 5.15145 6.91496V12H2.93145V0.899963Z" fill="white"/>
</g>
<defs>
<clipPath id="clip0_40000098_2648">
<rect width="24" height="24" fill="white"/>
</clipPath>
</defs>
</svg>
