<svg width="24" height="24" viewBox="0 0 24 24" fill="none" xmlns="http://www.w3.org/2000/svg">
<path d="M2.36474 5.95566C2.43921 5.50189 2.82724 5.16919 3.28199 5.16919H8.33153C9.33532 5.16919 10.1828 5.35399 10.874 5.72361C11.5652 6.09321 12.0627 6.62536 12.3664 7.32005C12.6702 8.01474 12.7428 8.84747 12.5844 9.81825C12.4259 10.798 12.0759 11.624 11.5344 12.2964C11.213 12.6961 10.8388 13.0384 10.4119 13.3232C10.0012 13.5973 9.78023 14.1113 9.95451 14.5768L10.0393 14.8032C10.3268 15.5712 11.381 15.6237 11.7418 14.8881L16.2522 5.69172C16.4092 5.37165 16.7319 5.16919 17.0851 5.16919H20.7376C21.1931 5.16919 21.5815 5.50285 21.6552 5.95742L23.5689 17.7564C23.6618 18.329 23.225 18.8492 22.6514 18.8492H20.5968C20.1313 18.8492 19.7375 18.5009 19.6753 18.0343L19.5436 17.0457C19.4815 16.579 19.0877 16.2308 18.6222 16.2308H15.5663C15.2057 16.2308 14.8776 16.4416 14.7245 16.7719L14.0122 18.3081C13.8591 18.6383 13.531 18.8492 13.1704 18.8492H8.21536C7.82506 18.8492 7.47629 18.6026 7.34217 18.2319L6.12852 14.8773C6.01037 14.5508 5.70322 14.3337 5.35953 14.3337C4.95934 14.3337 4.61781 14.6263 4.55184 15.0255L4.04998 18.0637C3.9751 18.517 3.58727 18.8492 3.13289 18.8492H1.34544C0.771116 18.8492 0.334128 18.3278 0.428188 17.7547L2.36474 5.95566Z" fill="white"/>
</svg>
