<svg width="24" height="24" viewBox="0 0 24 24" fill="none" xmlns="http://www.w3.org/2000/svg">
<path fill-rule="evenodd" clip-rule="evenodd" d="M2.29429 11.4712C7.73976 9.08338 11.3798 7.54001 13.2144 6.78288C18.3978 4.62799 19.4752 4.24943 20.1741 4.22031C20.3197 4.22031 20.6691 4.24943 20.9021 4.42415C21.0768 4.56975 21.135 4.77359 21.1642 4.91919C21.1933 5.06479 21.2224 5.38511 21.1933 5.6472C20.9021 8.58834 19.7082 15.781 19.0675 19.0716C18.8054 20.4694 18.2813 20.9353 17.7862 20.9935C16.7088 21.0809 15.8643 20.2655 14.816 19.5958C13.1852 18.5183 12.2534 17.8486 10.6518 16.8002C8.81721 15.5772 10.0111 14.9074 11.0595 13.83C11.3215 13.5388 16.1264 9.19986 16.2137 8.79218C16.2137 8.73394 16.2429 8.55922 16.1264 8.47185C16.0099 8.38449 15.8643 8.41361 15.7478 8.44273C15.5731 8.47185 12.9523 10.2191 7.85624 13.6552C7.09912 14.1794 6.42935 14.4124 5.81783 14.4124C5.14807 14.4124 3.86678 14.0338 2.90581 13.7135C1.741 13.3349 0.809158 13.1311 0.896518 12.4904C0.954759 12.1701 1.42068 11.8207 2.29429 11.4712Z" fill="white"/>
</svg>
